<svg width="55" height="50" viewBox="0 0 55 50" fill="none" xmlns="http://www.w3.org/2000/svg">
<path fill-rule="evenodd" clip-rule="evenodd" d="M7.22857 0C3.23634 0 0 3.21795 0 7.1875V14.5833C0 18.8981 3.51776 22.3958 7.85714 22.3958H12.1524V43.8542C12.1524 47.2484 14.9197 50 18.3333 50H38.2381C41.6517 50 44.419 47.2484 44.419 43.8542V22.3958H47.1429C51.4822 22.3958 55 18.8981 55 14.5833V7.1875C55 3.21795 51.7637 0 47.7714 0H7.22857ZM14.4571 43.8542V22.3958V20.1042V13.3333H42.1143V20.1042V22.3958V43.8542C42.1143 45.9828 40.3789 47.7083 38.2381 47.7083H18.3333C16.1926 47.7083 14.4571 45.9828 14.4571 43.8542ZM47.1429 20.1042H44.419V12.5H46.619V10.2083H8.90476V12.5H12.1524V20.1042H7.85714C4.79065 20.1042 2.30476 17.6324 2.30476 14.5833V7.1875C2.30476 4.48361 4.50923 2.29167 7.22857 2.29167H47.7714C50.4908 2.29167 52.6952 4.48361 52.6952 7.1875V14.5833C52.6952 17.6324 50.2094 20.1042 47.1429 20.1042ZM15.9238 42.6042V13.75H16.3429V42.6042C16.3429 44.215 17.6562 45.5208 19.2762 45.5208H37.819C39.4391 45.5208 40.7524 44.215 40.7524 42.6042V13.75H41.1714V42.6042C41.1714 44.4451 39.6705 45.9375 37.819 45.9375H19.2762C17.4247 45.9375 15.9238 44.4451 15.9238 42.6042ZM29.9526 20.5148V17.9424H28.0853V20.4786C27.3025 20.5527 26.5963 20.7388 25.9666 21.0369C25.1367 21.4257 24.4864 21.9811 24.0155 22.7031C23.5447 23.4252 23.3093 24.2782 23.3093 25.262C23.3093 26.2935 23.5288 27.1465 23.9677 27.8209C24.4066 28.4874 25.017 29.0468 25.7991 29.4991C26.5891 29.9434 27.5028 30.364 28.5402 30.7607C29.1546 30.9908 29.6414 31.2288 30.0005 31.4748C30.3676 31.7208 30.6309 32.0025 30.7905 32.3198C30.9581 32.6372 31.0419 33.0221 31.0419 33.4743C31.0419 33.879 30.9541 34.244 30.7785 34.5693C30.6109 34.8867 30.3596 35.1366 30.0244 35.3191C29.6972 35.5016 29.2783 35.5929 28.7676 35.5929C28.4404 35.5929 28.1172 35.5452 27.798 35.45C27.4788 35.3548 27.1915 35.1961 26.9362 34.974C26.6888 34.7439 26.4893 34.4384 26.3377 34.0575C26.1861 33.6687 26.1103 33.1847 26.1103 32.6055H22.6629C22.6629 33.6687 22.8385 34.5653 23.1896 35.2953C23.5407 36.0174 24.0116 36.5966 24.6021 37.033C25.1926 37.4694 25.8509 37.7868 26.5771 37.9851C27.0026 38.0967 27.4296 38.1756 27.8579 38.2218V40.5797H29.7252V38.2231C30.4715 38.146 31.1498 37.9755 31.76 37.7114C32.6219 37.3305 33.2922 36.783 33.771 36.0689C34.2498 35.3469 34.4892 34.4741 34.4892 33.4505C34.4892 32.419 34.2697 31.57 33.8308 30.9035C33.3919 30.237 32.7815 29.6737 31.9994 29.2135C31.2174 28.7533 30.3077 28.3248 29.2703 27.9281C28.6319 27.6662 28.1292 27.4123 27.7621 27.1663C27.395 26.9124 27.1357 26.6347 26.9841 26.3332C26.8404 26.0317 26.7686 25.6786 26.7686 25.2739C26.7686 24.8613 26.8364 24.4964 26.9721 24.179C27.1157 23.8537 27.3432 23.5958 27.6544 23.4054C27.9656 23.2149 28.3646 23.1197 28.8514 23.1197C29.1785 23.1197 29.4778 23.1832 29.7491 23.3101C30.0204 23.4292 30.2518 23.6117 30.4434 23.8576C30.6429 24.1036 30.7945 24.4091 30.8982 24.7741C31.002 25.1391 31.0538 25.5596 31.0538 26.0357H34.4892C34.4892 25.147 34.3575 24.3575 34.0942 23.6672C33.8308 22.9769 33.4518 22.3937 32.957 21.9176C32.4623 21.4336 31.8718 21.0686 31.1855 20.8227C30.7997 20.6799 30.3888 20.5773 29.9526 20.5148Z" fill="#42A5F5"/>
</svg>
