<svg width="28" height="36" viewBox="0 0 28 36" fill="none" xmlns="http://www.w3.org/2000/svg">
<path d="M27.25 15.2119V31.1875C27.25 32.2318 26.8352 33.2333 26.0967 33.9717C25.3583 34.7102 24.3568 35.125 23.3125 35.125H4.9375C3.89321 35.125 2.89169 34.7102 2.15327 33.9717C1.41484 33.2333 1 32.2318 1 31.1875V4.9375C1 3.89321 1.41484 2.89169 2.15327 2.15327C2.89169 1.41484 3.89321 1 4.9375 1H13.0381C13.734 1.00011 14.4015 1.27658 14.8936 1.76863L26.4814 13.3564C26.9734 13.8485 27.2499 14.516 27.25 15.2119Z" stroke="#0080FF" stroke-linejoin="round"/>
<path d="M14.125 1.65625V11.5C14.125 12.1962 14.4016 12.8639 14.8938 13.3562C15.3861 13.8484 16.0538 14.125 16.75 14.125H26.5938" stroke="#0080FF" stroke-linecap="round" stroke-linejoin="round"/>
<path d="M7.5625 20.6875H20.6875" stroke="#0080FF" stroke-linecap="round" stroke-linejoin="round"/>
<path d="M7.5625 27.25H20.6875" stroke="#0080FF" stroke-linecap="round" stroke-linejoin="round"/>
</svg>
