<svg width="58" height="50" viewBox="0 0 58 50" fill="none" xmlns="http://www.w3.org/2000/svg">
<path fill-rule="evenodd" clip-rule="evenodd" d="M7.4359 0C3.32917 0 0 3.2813 0 7.32899V13.1441V34.6906C0 38.7382 3.32917 42.0195 7.4359 42.0195H31.562C31.5615 41.9653 31.5613 41.911 31.5613 41.8567C31.5613 40.6857 31.6795 39.542 31.905 38.4365H7.4359C5.3369 38.4365 3.63533 36.7594 3.63533 34.6906V14.9356H48.9117V24.5936C48.9667 24.5931 49.0218 24.5928 49.0769 24.5928C50.265 24.5928 51.4254 24.7094 52.547 24.9316V13.1441V7.32899C52.547 3.28131 49.2178 0 45.1111 0H7.4359ZM3.63533 7.32899C3.63533 5.26017 5.3369 3.58306 7.4359 3.58306H45.1111C47.2101 3.58306 48.9117 5.26017 48.9117 7.32899V11.3525H3.63533V7.32899ZM46.9288 47.3941C51.5831 47.3941 55.3561 43.6753 55.3561 39.0879C55.3561 34.5006 51.5831 30.7818 46.9288 30.7818C42.2745 30.7818 38.5014 34.5006 38.5014 39.0879C38.5014 43.6753 42.2745 47.3941 46.9288 47.3941ZM46.9288 50C53.0432 50 58 45.1145 58 39.0879C58 33.0614 53.0432 28.1759 46.9288 28.1759C40.8143 28.1759 35.8575 33.0614 35.8575 39.0879C35.8575 45.1145 40.8143 50 46.9288 50ZM53.3732 39.2508C53.3732 42.8488 50.414 45.7655 46.7635 45.7655C43.1131 45.7655 40.1538 42.8488 40.1538 39.2508C40.1538 35.6529 43.1131 32.7362 46.7635 32.7362C50.414 32.7362 53.3732 35.6529 53.3732 39.2508ZM54.0342 39.2508C54.0342 43.2086 50.779 46.4169 46.7635 46.4169C42.7481 46.4169 39.4929 43.2086 39.4929 39.2508C39.4929 35.2931 42.7481 32.0847 46.7635 32.0847C50.779 32.0847 54.0342 35.2931 54.0342 39.2508ZM15.2023 22.1498H6.77493V18.5668H15.2023V22.1498ZM29.4131 22.1498H20.9858V18.5668H29.4131V22.1498ZM47.0553 37.4622V36.9122H46.6525V37.4544C46.4837 37.4703 46.3313 37.5101 46.1955 37.5738C46.0165 37.6569 45.8762 37.7757 45.7747 37.9301C45.6731 38.0845 45.6223 38.2668 45.6223 38.4772C45.6223 38.6977 45.6697 38.8801 45.7643 39.0243C45.859 39.1668 45.9907 39.2864 46.1594 39.3831C46.3298 39.4781 46.5269 39.5681 46.7506 39.6529C46.8832 39.7021 46.9882 39.753 47.0656 39.8056C47.1448 39.8582 47.2016 39.9184 47.236 39.9863C47.2722 40.0541 47.2902 40.1364 47.2902 40.2331C47.2902 40.3196 47.2713 40.3977 47.2334 40.4672C47.1973 40.5351 47.1431 40.5885 47.0708 40.6275C47.0002 40.6666 46.9098 40.6861 46.7997 40.6861C46.7291 40.6861 46.6594 40.6759 46.5905 40.6555C46.5217 40.6352 46.4597 40.6012 46.4046 40.5537C46.3513 40.5045 46.3083 40.4392 46.2756 40.3578C46.2428 40.2747 46.2265 40.1712 46.2265 40.0473H45.4829C45.4829 40.2747 45.5208 40.4664 45.5965 40.6225C45.6722 40.7768 45.7738 40.9007 45.9012 40.994C46.0286 41.0873 46.1706 41.1552 46.3272 41.1976C46.419 41.2214 46.5111 41.2383 46.6035 41.2482V41.7523H47.0062V41.2485C47.1672 41.232 47.3135 41.1955 47.4452 41.139C47.6311 41.0576 47.7756 40.9406 47.8789 40.7879C47.9822 40.6335 48.0338 40.4469 48.0338 40.228C48.0338 40.0075 47.9865 39.8259 47.8918 39.6834C47.7972 39.5409 47.6655 39.4205 47.4968 39.3221C47.3281 39.2237 47.1319 39.1321 46.9081 39.0472C46.7704 38.9912 46.662 38.937 46.5828 38.8844C46.5036 38.8301 46.4477 38.7707 46.415 38.7062C46.384 38.6418 46.3685 38.5663 46.3685 38.4797C46.3685 38.3915 46.3831 38.3135 46.4124 38.2456C46.4434 38.1761 46.4924 38.1209 46.5596 38.0802C46.6267 38.0395 46.7128 38.0191 46.8178 38.0191C46.8883 38.0191 46.9529 38.0327 47.0114 38.0599C47.0699 38.0853 47.1198 38.1243 47.1611 38.1769C47.2042 38.2295 47.2369 38.2948 47.2593 38.3729C47.2816 38.4509 47.2928 38.5408 47.2928 38.6426H48.0338C48.0338 38.4526 48.0054 38.2838 47.9486 38.1362C47.8918 37.9886 47.8101 37.8639 47.7033 37.7621C47.5966 37.6586 47.4693 37.5806 47.3212 37.528C47.238 37.4975 47.1494 37.4755 47.0553 37.4622Z" fill="#42A5F5"/>
</svg>
