<svg width="54" height="48" viewBox="0 0 54 48" fill="none" xmlns="http://www.w3.org/2000/svg">
<path fill-rule="evenodd" clip-rule="evenodd" d="M7.09714 0C3.1775 0 0 3.16845 0 7.07692V14.359C0 18.6073 3.4538 22.0513 7.71429 22.0513H11.52V31.7949H15.9943C16.7044 31.7949 17.28 32.3689 17.28 33.0769C17.28 33.785 16.7044 34.359 15.9943 34.359H11.52V48H26.5645L26.7339 47.0202C26.9332 45.8677 27.9357 45.0256 29.1086 45.0256C30.2815 45.0256 31.284 45.8677 31.4833 47.0202L31.6527 48H45.2571V34.359H42.0171C41.3071 34.359 40.7314 33.785 40.7314 33.0769C40.7314 32.3689 41.3071 31.7949 42.0171 31.7949H45.2571V22.0513H46.2857C50.5462 22.0513 54 18.6073 54 14.359V7.07692C54 3.16845 50.8225 0 46.9029 0H7.09714ZM13.7829 29.5385V22.0513V19.7949V12.7179H42.9943V19.7949V22.0513V29.5385H42.0171C40.0573 29.5385 38.4686 31.1227 38.4686 33.0769C38.4686 35.0312 40.0573 36.6154 42.0171 36.6154H42.9943V45.7436H33.4655C32.7806 43.9801 31.0671 42.7692 29.1086 42.7692C27.1501 42.7692 25.4365 43.9801 24.7517 45.7436H13.7829V36.6154H15.9943C17.9541 36.6154 19.5429 35.0312 19.5429 33.0769C19.5429 31.1227 17.9541 29.5385 15.9943 29.5385H13.7829ZM45.2571 19.7949V12.3077H45.7714V10.0513H9.97714V12.3077H11.52V19.7949H7.71429C4.70355 19.7949 2.26286 17.3611 2.26286 14.359V7.07692C2.26286 4.41463 4.42724 2.25641 7.09714 2.25641H46.9029C49.5728 2.25641 51.7371 4.41463 51.7371 7.07692V14.359C51.7371 17.3611 49.2965 19.7949 46.2857 19.7949H45.2571ZM19.9246 33.1282H20.7277V32.7179H19.9246V33.1282ZM21.5308 33.1282H22.3338V32.7179H21.5308V33.1282ZM23.1369 33.1282H23.94V32.7179H23.1369V33.1282ZM24.7431 33.1282H25.5462V32.7179H24.7431V33.1282ZM26.3492 33.1282H27.1523V32.7179H26.3492V33.1282ZM27.9554 33.1282H28.7585V32.7179H27.9554V33.1282ZM29.5615 33.1282H30.3646V32.7179H29.5615V33.1282ZM31.1677 33.1282H31.9708V32.7179H31.1677V33.1282ZM32.7738 33.1282H33.5769V32.7179H32.7738V33.1282ZM34.38 33.1282H35.1831V32.7179H34.38V33.1282ZM35.9862 33.1282H36.7892V32.7179H35.9862V33.1282ZM37.5923 33.1282H38.3954V32.7179H37.5923V33.1282ZM22.2171 18.6809V19.3667C22.2171 19.8477 22.3249 20.2901 22.5403 20.6938C22.7558 21.0976 23.073 21.4212 23.492 21.6647C23.9169 21.9081 24.4406 22.0298 25.0631 22.0298C25.6796 22.0298 26.1973 21.9081 26.6162 21.6647C27.0352 21.4212 27.3494 21.0976 27.5589 20.6938C27.7744 20.2901 27.8821 19.8477 27.8821 19.3667V18.6809C27.8821 18.1881 27.7744 17.7398 27.5589 17.336C27.3494 16.9322 27.0322 16.6086 26.6073 16.3652C26.1883 16.1217 25.6646 16 25.0362 16C24.4257 16 23.9109 16.1217 23.492 16.3652C23.073 16.6086 22.7558 16.9322 22.5403 17.336C22.3249 17.7398 22.2171 18.1881 22.2171 18.6809ZM23.9319 19.3667V18.6809C23.9319 18.4612 23.9708 18.2593 24.0486 18.0753C24.1324 17.8853 24.2581 17.7338 24.4257 17.621C24.5933 17.5023 24.7967 17.4429 25.0362 17.4429C25.2935 17.4429 25.503 17.5023 25.6646 17.621C25.8322 17.7338 25.9549 17.8853 26.0327 18.0753C26.1165 18.2593 26.1584 18.4612 26.1584 18.6809V19.3667C26.1584 19.5746 26.1195 19.7735 26.0417 19.9635C25.9639 20.1476 25.8442 20.299 25.6826 20.4177C25.521 20.5305 25.3115 20.587 25.0541 20.587C24.8087 20.587 24.5992 20.5305 24.4257 20.4177C24.2581 20.299 24.1324 20.1476 24.0486 19.9635C23.9708 19.7735 23.9319 19.5746 23.9319 19.3667ZM28.4657 25.9755V26.6613C28.4657 27.1482 28.5734 27.5936 28.7889 27.9973C29.0103 28.4011 29.3335 28.7247 29.7585 28.9682C30.1834 29.2116 30.7071 29.3333 31.3296 29.3333C31.946 29.3333 32.4637 29.2116 32.8827 28.9682C33.3017 28.7247 33.6159 28.4011 33.8254 27.9973C34.0408 27.5936 34.1486 27.1482 34.1486 26.6613V25.9755C34.1486 25.4886 34.0408 25.0433 33.8254 24.6395C33.6099 24.2357 33.2927 23.9121 32.8737 23.6687C32.4548 23.4252 31.9341 23.3035 31.3116 23.3035C30.6951 23.3035 30.1744 23.4252 29.7495 23.6687C29.3305 23.9121 29.0103 24.2357 28.7889 24.6395C28.5734 25.0433 28.4657 25.4886 28.4657 25.9755ZM30.1894 26.6613V25.9755C30.1894 25.7617 30.2313 25.5628 30.3151 25.3788C30.3989 25.1887 30.5216 25.0373 30.6832 24.9245C30.8507 24.8058 31.0602 24.7464 31.3116 24.7464C31.563 24.7464 31.7695 24.8058 31.9311 24.9245C32.0987 25.0373 32.2243 25.1887 32.3081 25.3788C32.3919 25.5628 32.4338 25.7617 32.4338 25.9755V26.6613C32.4338 26.8751 32.4009 27.077 32.3351 27.267C32.2752 27.457 32.1645 27.6084 32.0029 27.7212C31.8413 27.834 31.6168 27.8904 31.3296 27.8904C31.1021 27.8904 30.9016 27.834 30.7281 27.7212C30.5605 27.6084 30.4288 27.457 30.333 27.267C30.2373 27.077 30.1894 26.8751 30.1894 26.6613ZM25.5658 28.1755L31.949 18.0396L30.6921 17.3805L24.309 27.5164L25.5658 28.1755Z" fill="#42A5F5"/>
</svg>
