<svg aria-hidden="true" style="position: absolute; width: 0; height: 0; overflow: hidden;" version="1.1" xmlns="http://www.w3.org/2000/svg" xmlns:xlink="http://www.w3.org/1999/xlink">
<defs>
<symbol id="icon-profit" viewBox="0 0 35 32">
<path fill="#42a5f5" style="fill: var(--color1, #42a5f5)" d="M4.626 0c-2.555 0-4.626 2.059-4.626 4.6v4.733c0 2.761 2.251 5 5.029 5h2.749v13.733c0 2.172 1.771 3.933 3.956 3.933h12.739c2.185 0 3.956-1.761 3.956-3.933v-13.733h1.743c2.777 0 5.029-2.239 5.029-5v-4.733c0-2.541-2.071-4.6-4.626-4.6h-25.947zM9.253 28.067v-19.533h17.701v19.533c0 1.362-1.111 2.467-2.481 2.467h-12.739c-1.37 0-2.481-1.104-2.481-2.467zM30.171 12.867h-1.743v-4.867h1.408v-1.467h-24.137v1.467h2.079v4.867h-2.749c-1.963 0-3.554-1.582-3.554-3.533v-4.733c0-1.731 1.411-3.133 3.151-3.133h25.947c1.74 0 3.151 1.403 3.151 3.133v4.733c0 1.951-1.591 3.533-3.553 3.533zM10.191 27.267v-18.467h0.268v18.467c0 1.031 0.841 1.867 1.877 1.867h11.867c1.037 0 1.877-0.836 1.877-1.867v-18.467h0.268v18.467c0 1.178-0.961 2.133-2.146 2.133h-11.867c-1.185 0-2.146-0.955-2.146-2.133zM19.17 13.129v-1.646h-1.195v1.623c-0.501 0.047-0.953 0.167-1.356 0.357-0.531 0.249-0.947 0.604-1.249 1.066s-0.452 1.008-0.452 1.638c0 0.66 0.14 1.206 0.421 1.638 0.281 0.427 0.672 0.785 1.172 1.074 0.506 0.284 1.090 0.554 1.754 0.807 0.393 0.147 0.705 0.3 0.935 0.457 0.235 0.157 0.403 0.338 0.506 0.541 0.107 0.203 0.161 0.449 0.161 0.739 0 0.259-0.056 0.493-0.169 0.701-0.107 0.203-0.268 0.363-0.483 0.48-0.209 0.117-0.477 0.175-0.804 0.175-0.209 0-0.416-0.031-0.621-0.091s-0.388-0.163-0.552-0.305c-0.158-0.147-0.286-0.343-0.383-0.587-0.097-0.249-0.146-0.559-0.146-0.929h-2.206c0 0.68 0.112 1.254 0.337 1.721 0.225 0.462 0.526 0.833 0.904 1.112s0.799 0.482 1.264 0.609c0.272 0.071 0.546 0.122 0.82 0.151v1.509h1.195v-1.508c0.478-0.049 0.912-0.158 1.302-0.328 0.552-0.244 0.981-0.594 1.287-1.051 0.306-0.462 0.46-1.021 0.46-1.676 0-0.66-0.14-1.204-0.421-1.63s-0.672-0.787-1.172-1.082c-0.5-0.295-1.083-0.569-1.747-0.823-0.409-0.168-0.73-0.33-0.965-0.488-0.235-0.163-0.401-0.34-0.498-0.533-0.092-0.193-0.138-0.419-0.138-0.678 0-0.264 0.043-0.498 0.13-0.701 0.092-0.208 0.238-0.373 0.437-0.495s0.455-0.183 0.766-0.183c0.209 0 0.401 0.041 0.575 0.122 0.174 0.076 0.322 0.193 0.444 0.35 0.128 0.157 0.225 0.353 0.291 0.587s0.1 0.503 0.1 0.807h2.199c0-0.569-0.084-1.074-0.253-1.516s-0.411-0.815-0.728-1.12c-0.317-0.31-0.695-0.543-1.134-0.701-0.247-0.091-0.51-0.157-0.789-0.197z"></path>
</symbol>
<symbol id="icon-volume" viewBox="0 0 37 32">
<path fill="#42a5f5" style="fill: var(--color1, #42a5f5)" d="M4.759 0c-2.628 0-4.759 2.1-4.759 4.691v17.511c0 2.59 2.131 4.691 4.759 4.691h15.441c-0-0.035-0-0.069-0-0.104 0-0.749 0.076-1.481 0.22-2.189h-15.66c-1.343 0-2.432-1.073-2.432-2.397v-12.643h28.977v6.181c0.035-0 0.070-0.001 0.106-0.001 0.76 0 1.503 0.075 2.221 0.217v-11.266c0-2.591-2.131-4.691-4.759-4.691h-24.112zM2.327 4.691c0-1.324 1.089-2.397 2.432-2.397h24.112c1.343 0 2.432 1.073 2.432 2.397v2.575h-28.977v-2.575zM30.034 30.332c2.979 0 5.393-2.38 5.393-5.316s-2.415-5.316-5.393-5.316-5.394 2.38-5.394 5.316c0 2.936 2.415 5.316 5.394 5.316zM30.034 32c3.913 0 7.086-3.127 7.086-6.984s-3.172-6.984-7.086-6.984c-3.913 0-7.086 3.127-7.086 6.984s3.172 6.984 7.086 6.984zM34.159 25.12c0 2.303-1.894 4.169-4.23 4.169s-4.23-1.867-4.23-4.169c0-2.303 1.894-4.169 4.23-4.169s4.23 1.867 4.23 4.169zM34.582 25.12c0 2.533-2.083 4.586-4.653 4.586s-4.653-2.053-4.653-4.586c0-2.533 2.083-4.586 4.653-4.586s4.653 2.053 4.653 4.586zM9.729 14.176v-2.293h-5.394v2.293h5.394zM18.824 14.176v-2.293h-5.393v2.293h5.393zM30.115 23.976c0.060 0.009 0.117 0.023 0.17 0.042 0.095 0.034 0.176 0.084 0.245 0.15 0.068 0.065 0.121 0.145 0.157 0.239s0.055 0.203 0.055 0.324h-0.474c0-0.065-0.007-0.123-0.021-0.173s-0.035-0.092-0.063-0.125c-0.026-0.034-0.058-0.059-0.096-0.075-0.037-0.017-0.079-0.026-0.124-0.026-0.067 0-0.122 0.013-0.165 0.039s-0.074 0.061-0.094 0.106c-0.019 0.043-0.028 0.093-0.028 0.15s0.010 0.104 0.030 0.145c0.021 0.041 0.057 0.079 0.107 0.114 0.051 0.034 0.12 0.068 0.208 0.104 0.143 0.054 0.269 0.113 0.377 0.176s0.192 0.14 0.253 0.231c0.061 0.091 0.091 0.207 0.091 0.349 0 0.14-0.033 0.26-0.099 0.358-0.066 0.098-0.159 0.173-0.278 0.225-0.084 0.036-0.178 0.060-0.281 0.070v0.322h-0.258v-0.323c-0.059-0.006-0.118-0.017-0.177-0.032-0.1-0.027-0.191-0.071-0.273-0.13s-0.147-0.139-0.195-0.238c-0.048-0.1-0.073-0.223-0.073-0.368h0.476c0 0.079 0.010 0.146 0.031 0.199 0.021 0.052 0.048 0.094 0.083 0.125 0.035 0.030 0.075 0.052 0.119 0.065s0.089 0.020 0.134 0.020c0.070 0 0.128-0.012 0.174-0.038 0.046-0.025 0.081-0.059 0.104-0.103 0.024-0.044 0.036-0.094 0.036-0.15 0-0.062-0.012-0.115-0.035-0.158-0.022-0.043-0.058-0.082-0.109-0.116-0.050-0.034-0.117-0.066-0.202-0.098-0.143-0.054-0.269-0.112-0.378-0.173-0.108-0.062-0.192-0.138-0.253-0.23-0.061-0.092-0.091-0.209-0.091-0.35 0-0.135 0.032-0.251 0.098-0.35s0.155-0.175 0.269-0.228c0.087-0.041 0.184-0.066 0.292-0.076v-0.347h0.258v0.352z"></path>
</symbol>
<symbol id="icon-withdraw" viewBox="0 0 36 32">
<path fill="#42a5f5" style="fill: var(--color1, #42a5f5)" d="M4.731 0c-2.613 0-4.731 2.112-4.731 4.718v4.855c0 2.832 2.303 5.128 5.143 5.128h2.537v6.496h2.983c0.473 0 0.857 0.383 0.857 0.855s-0.384 0.855-0.857 0.855h-2.983v9.094h10.030l0.113-0.653c0.133-0.768 0.801-1.33 1.583-1.33s1.45 0.561 1.583 1.33l0.113 0.653h9.070v-9.094h-2.16c-0.473 0-0.857-0.383-0.857-0.855s0.384-0.855 0.857-0.855h2.16v-6.496h0.686c2.84 0 5.143-2.296 5.143-5.128v-4.855c0-2.606-2.118-4.718-4.731-4.718h-26.537zM9.189 19.692v-11.214h19.474v11.214h-0.651c-1.307 0-2.366 1.056-2.366 2.359s1.059 2.359 2.366 2.359h0.651v6.085h-6.353c-0.457-1.176-1.599-1.983-2.905-1.983s-2.448 0.807-2.905 1.983h-7.313v-6.085h1.474c1.307 0 2.366-1.056 2.366-2.359s-1.059-2.359-2.366-2.359h-1.474zM30.171 13.197v-4.991h0.343v-1.504h-23.863v1.504h1.029v4.991h-2.537c-2.007 0-3.634-1.623-3.634-3.624v-4.855c0-1.775 1.443-3.214 3.223-3.214h26.537c1.78 0 3.223 1.439 3.223 3.214v4.855c0 2.001-1.627 3.624-3.634 3.624h-0.686zM13.283 22.085h0.535v-0.274h-0.535v0.274zM14.354 22.085h0.535v-0.274h-0.535v0.274zM15.425 22.085h0.535v-0.274h-0.535v0.274zM16.495 22.085h0.535v-0.274h-0.535v0.274zM17.566 22.085h0.535v-0.274h-0.535v0.274zM18.637 22.085h0.535v-0.274h-0.535v0.274zM19.708 22.085h0.535v-0.274h-0.535v0.274zM20.778 22.085h0.535v-0.274h-0.535v0.274zM21.849 22.085h0.535v-0.274h-0.535v0.274zM22.92 22.085h0.535v-0.274h-0.535v0.274zM23.991 22.085h0.535v-0.274h-0.535v0.274zM25.062 22.085h0.535v-0.274h-0.535v0.274zM14.811 12.454v0.457c0 0.321 0.072 0.616 0.215 0.885s0.355 0.485 0.634 0.647c0.283 0.162 0.632 0.243 1.047 0.243 0.411 0 0.756-0.081 1.035-0.243s0.489-0.378 0.628-0.647c0.144-0.269 0.215-0.564 0.215-0.885v-0.457c0-0.329-0.072-0.627-0.215-0.897-0.14-0.269-0.351-0.485-0.634-0.647-0.279-0.162-0.628-0.243-1.047-0.243-0.407 0-0.75 0.081-1.029 0.243s-0.491 0.378-0.634 0.647c-0.144 0.269-0.215 0.568-0.215 0.897zM15.955 12.911v-0.457c0-0.146 0.026-0.281 0.078-0.404 0.056-0.127 0.14-0.228 0.251-0.303 0.112-0.079 0.247-0.119 0.407-0.119 0.172 0 0.311 0.040 0.419 0.119 0.112 0.075 0.194 0.176 0.245 0.303 0.056 0.123 0.084 0.257 0.084 0.404v0.457c0 0.139-0.026 0.271-0.078 0.398-0.052 0.123-0.132 0.224-0.239 0.303-0.108 0.075-0.247 0.113-0.419 0.113-0.164 0-0.303-0.038-0.419-0.113-0.112-0.079-0.196-0.18-0.251-0.303-0.052-0.127-0.078-0.259-0.078-0.398zM18.977 17.317v0.457c0 0.325 0.072 0.622 0.215 0.891 0.148 0.269 0.363 0.485 0.646 0.647s0.632 0.243 1.047 0.243c0.411 0 0.756-0.081 1.035-0.243s0.489-0.378 0.628-0.647c0.144-0.269 0.215-0.566 0.215-0.891v-0.457c0-0.325-0.072-0.621-0.215-0.891s-0.355-0.485-0.634-0.647c-0.279-0.162-0.626-0.243-1.041-0.243-0.411 0-0.758 0.081-1.041 0.243-0.279 0.162-0.493 0.378-0.64 0.647-0.144 0.269-0.215 0.566-0.215 0.891zM20.126 17.774v-0.457c0-0.143 0.028-0.275 0.084-0.398 0.056-0.127 0.138-0.228 0.245-0.303 0.112-0.079 0.251-0.119 0.419-0.119s0.305 0.040 0.413 0.119c0.112 0.075 0.195 0.176 0.251 0.303 0.056 0.123 0.084 0.255 0.084 0.398v0.457c0 0.143-0.022 0.277-0.066 0.404-0.040 0.127-0.114 0.228-0.221 0.303s-0.257 0.113-0.449 0.113c-0.152 0-0.285-0.038-0.401-0.113-0.112-0.075-0.2-0.176-0.263-0.303s-0.096-0.261-0.096-0.404zM17.044 18.784l4.255-6.757-0.838-0.439-4.255 6.757 0.838 0.439z"></path>
</symbol>
<symbol id="icon-document" viewBox="0 0 28 36" fill="none" xmlns="http://www.w3.org/2000/svg">
<path d="M27.25 15.2119V31.1875C27.25 32.2318 26.8352 33.2333 26.0967 33.9717C25.3583 34.7102 24.3568 35.125 23.3125 35.125H4.9375C3.89321 35.125 2.89169 34.7102 2.15327 33.9717C1.41484 33.2333 1 32.2318 1 31.1875V4.9375C1 3.89321 1.41484 2.89169 2.15327 2.15327C2.89169 1.41484 3.89321 1 4.9375 1H13.0381C13.734 1.00011 14.4015 1.27658 14.8936 1.76863L26.4814 13.3564C26.9734 13.8485 27.2499 14.516 27.25 15.2119Z" stroke="#0080FF" stroke-linejoin="round"/>
<path d="M14.125 1.65625V11.5C14.125 12.1962 14.4016 12.8639 14.8938 13.3562C15.3861 13.8484 16.0538 14.125 16.75 14.125H26.5938" stroke="#0080FF" stroke-linecap="round" stroke-linejoin="round"/>
<path d="M7.5625 20.6875H20.6875" stroke="#0080FF" stroke-linecap="round" stroke-linejoin="round"/>
<path d="M7.5625 27.25H20.6875" stroke="#0080FF" stroke-linecap="round" stroke-linejoin="round"/>
</symbol>
</defs>
</svg>
